<?xml version="1.0" standalone="no"?>
<!DOCTYPE svg PUBLIC "-//W3C//DTD SVG 20010904//EN"
 "http://www.w3.org/TR/2001/REC-SVG-20010904/DTD/svg10.dtd">
<svg version="1.0" xmlns="http://www.w3.org/2000/svg"
 width="752.000000pt" height="752.000000pt" viewBox="0 0 752.000000 752.000000"
 preserveAspectRatio="xMidYMid meet">

<g transform="translate(0.000000,752.000000) scale(0.100000,-0.100000)"
fill="#000000" stroke="none">
<path d="M2295 5921 c-70 -18 -121 -61 -346 -288 -214 -216 -238 -243 -254
-292 -23 -72 -16 -159 18 -226 19 -38 184 -208 656 -680 l631 -630 -639 -640
c-610 -612 -639 -643 -661 -700 -30 -81 -24 -171 14 -242 18 -33 105 -127 249
-271 260 -259 287 -277 410 -270 48 2 87 11 117 26 32 15 222 199 680 657
l635 635 645 -644 c714 -712 671 -676 805 -676 110 0 149 27 401 282 141 141
230 239 244 268 34 67 38 159 10 235 -22 57 -51 88 -661 700 l-639 640 630
630 c442 442 637 643 656 678 35 66 43 155 19 228 -16 49 -40 76 -254 292
-272 275 -294 290 -411 291 -59 1 -85 -4 -125 -23 -39 -19 -184 -158 -685
-657 l-635 -634 -635 634 c-491 489 -646 638 -683 655 -51 25 -143 35 -192 22z"/>
</g>
</svg>
