<?xml version="1.0" standalone="no"?>
<!DOCTYPE svg PUBLIC "-//W3C//DTD SVG 20010904//EN"
 "http://www.w3.org/TR/2001/REC-SVG-20010904/DTD/svg10.dtd">
<svg version="1.0" xmlns="http://www.w3.org/2000/svg"
 width="752.000000pt" height="752.000000pt" viewBox="0 0 752.000000 752.000000"
 preserveAspectRatio="xMidYMid meet">

<g transform="translate(0.000000,752.000000) scale(0.100000,-0.100000)"
fill="#000000" stroke="none">
<path d="M2270 4635 l875 -875 -875 -875 -875 -875 540 0 540 0 875 875 875
875 -870 869 -870 869 -545 6 -545 6 875 -875z"/>
<path d="M3835 5502 l-530 -2 870 -870 870 -870 -875 -875 -875 -875 545 0
545 0 875 875 875 875 -879 873 c-483 479 -882 872 -885 872 -3 0 -244 -1
-536 -3z"/>
</g>
</svg>
