<svg width="24" height="24" viewBox="0 0 24 24" fill="none" xmlns="http://www.w3.org/2000/svg">
<path d="M19.2711 16.7303L19.3 16.7011V16.66V4.80039C19.3 4.13735 19.0367 3.50146 18.5678 3.03262C18.099 2.56378 17.4631 2.30039 16.8 2.30039H7.20005C6.53701 2.30039 5.90112 2.56378 5.43228 3.03262C4.96344 3.50146 4.70005 4.13735 4.70005 4.80039V19.2004C4.70005 19.8634 4.96344 20.4993 5.43228 20.9682C5.90112 21.437 6.53701 21.7004 7.20005 21.7004H13.044H13.2821L13.1155 21.5304L12.5863 20.9904L12.586 20.9901C12.406 20.8079 12.2768 20.5938 12.1963 20.3669L12.1727 20.3004H12.102H7.20005C6.90831 20.3004 6.62852 20.1845 6.42223 19.9782C6.21594 19.7719 6.10005 19.4921 6.10005 19.2004V4.80039C6.10005 4.50865 6.21594 4.22886 6.42223 4.02257C6.62852 3.81628 6.90831 3.70039 7.20005 3.70039H16.8C17.0918 3.70039 17.3716 3.81628 17.5779 4.02257C17.7842 4.22886 17.9 4.50865 17.9 4.80039V17.872V18.1151L18.0711 17.9423L19.2711 16.7303ZM20.5042 16.9064L20.503 16.9076L16.2028 21.2515L14.3008 19.3114C14.3007 19.3112 14.3005 19.3111 14.3004 19.3109C14.2365 19.244 14.1599 19.1904 14.0752 19.1532C13.9902 19.116 13.8987 19.096 13.806 19.0944C13.7132 19.0928 13.6211 19.1097 13.5349 19.144C13.4487 19.1783 13.3702 19.2295 13.304 19.2944C13.2378 19.3594 13.1851 19.4368 13.149 19.5223C13.113 19.6078 13.0943 19.6996 13.0941 19.7923C13.0938 19.8851 13.112 19.977 13.1476 20.0627C13.183 20.1481 13.2351 20.2257 13.3007 20.2909C13.3009 20.2911 13.3011 20.2912 13.3012 20.2914L15.615 22.652C15.6912 22.7296 15.782 22.7914 15.8822 22.8336C15.9824 22.8759 16.09 22.8977 16.1987 22.898C16.3075 22.8982 16.4152 22.8769 16.5156 22.8351C16.616 22.7933 16.707 22.732 16.7835 22.6547C16.7835 22.6547 16.7835 22.6547 16.7835 22.6547L21.4971 17.8931L21.426 17.8228L21.4982 17.892C21.6253 17.7595 21.6952 17.5823 21.6929 17.3987C21.6905 17.2151 21.6162 17.0398 21.4858 16.9105C21.3554 16.7812 21.1795 16.7083 20.9959 16.7076C20.8123 16.7068 20.6357 16.7782 20.5042 16.9064ZM9.31929 7.51963C9.56308 7.27583 9.70005 6.94517 9.70005 6.60039C9.70005 6.25561 9.56308 5.92495 9.31929 5.68115C9.07549 5.43735 8.74483 5.30039 8.40005 5.30039C8.05527 5.30039 7.72461 5.43735 7.48081 5.68115C7.23701 5.92495 7.10005 6.25561 7.10005 6.60039C7.10005 6.94517 7.23701 7.27583 7.48081 7.51963C7.72461 7.76343 8.05527 7.90039 8.40005 7.90039C8.74483 7.90039 9.07549 7.76343 9.31929 7.51963ZM11.4 5.90039C11.2144 5.90039 11.0363 5.97414 10.9051 6.10542C10.7738 6.23669 10.7 6.41474 10.7 6.60039C10.7 6.78604 10.7738 6.96409 10.9051 7.09537C11.0363 7.22664 11.2144 7.30039 11.4 7.30039H16.2C16.3857 7.30039 16.5637 7.22664 16.695 7.09537C16.8263 6.96409 16.9 6.78604 16.9 6.60039C16.9 6.41474 16.8263 6.23669 16.695 6.10542C16.5637 5.97414 16.3857 5.90039 16.2 5.90039H11.4ZM11.4 10.7004C11.2144 10.7004 11.0363 10.7741 10.9051 10.9054C10.7738 11.0367 10.7 11.2147 10.7 11.4004C10.7 11.586 10.7738 11.7641 10.9051 11.8954C11.0363 12.0266 11.2144 12.1004 11.4 12.1004H16.2C16.3857 12.1004 16.5637 12.0266 16.695 11.8954C16.8263 11.7641 16.9 11.586 16.9 11.4004C16.9 11.2147 16.8263 11.0367 16.695 10.9054C16.5637 10.7741 16.3857 10.7004 16.2 10.7004H11.4ZM10.9051 15.7054C10.7738 15.8367 10.7 16.0147 10.7 16.2004C10.7 16.386 10.7738 16.5641 10.9051 16.6954C11.0363 16.8266 11.2144 16.9004 11.4 16.9004H16.2C16.3857 16.9004 16.5637 16.8266 16.695 16.6954C16.8263 16.5641 16.9 16.386 16.9 16.2004C16.9 16.0147 16.8263 15.8367 16.695 15.7054C16.5637 15.5741 16.3857 15.5004 16.2 15.5004H11.4C11.2144 15.5004 11.0363 15.5741 10.9051 15.7054ZM8.40005 12.7004C8.74483 12.7004 9.07549 12.5634 9.31929 12.3196C9.56308 12.0758 9.70005 11.7452 9.70005 11.4004C9.70005 11.0556 9.56308 10.7249 9.31929 10.4812C9.07549 10.2374 8.74483 10.1004 8.40005 10.1004C8.05527 10.1004 7.72461 10.2374 7.48081 10.4812C7.23701 10.7249 7.10005 11.0556 7.10005 11.4004C7.10005 11.7452 7.23701 12.0758 7.48081 12.3196C7.72461 12.5634 8.05527 12.7004 8.40005 12.7004ZM8.40005 17.5004C8.74483 17.5004 9.07549 17.3634 9.31929 17.1196C9.56308 16.8758 9.70005 16.5452 9.70005 16.2004C9.70005 15.8556 9.56308 15.5249 9.31929 15.2812C9.07549 15.0374 8.74483 14.9004 8.40005 14.9004C8.05527 14.9004 7.72461 15.0374 7.48081 15.2812C7.23701 15.5249 7.10005 15.8556 7.10005 16.2004C7.10005 16.5452 7.23701 16.8758 7.48081 17.1196C7.72461 17.3634 8.05527 17.5004 8.40005 17.5004Z" fill="#04095A" stroke="#04095A" stroke-width="0.2"/>
</svg>
